<svg xmlns="http://www.w3.org/2000/svg" viewBox="0 0 32 32" width="32" height="32">
  <rect width="32" height="32" fill="#000"/>
  <rect x="4" y="4" width="3" height="1" fill="#fff"/>
  <rect x="25" y="4" width="3" height="1" fill="#fff"/>
  <rect x="4" y="5" width="4" height="1" fill="#fff"/>
  <rect x="24" y="5" width="4" height="1" fill="#fff"/>
  <rect x="3" y="6" width="2" height="1" fill="#fff"/>
  <rect x="6" y="6" width="3" height="1" fill="#fff"/>
  <rect x="23" y="6" width="3" height="1" fill="#fff"/>
  <rect x="27" y="6" width="2" height="1" fill="#fff"/>
  <rect x="3" y="7" width="2" height="1" fill="#fff"/>
  <rect x="7" y="7" width="3" height="1" fill="#fff"/>
  <rect x="22" y="7" width="3" height="1" fill="#fff"/>
  <rect x="27" y="7" width="2" height="1" fill="#fff"/>
  <rect x="3" y="8" width="2" height="1" fill="#fff"/>
  <rect x="8" y="8" width="16" height="1" fill="#fff"/>
  <rect x="27" y="8" width="2" height="1" fill="#fff"/>
  <rect x="3" y="9" width="2" height="1" fill="#fff"/>
  <rect x="9" y="9" width="14" height="1" fill="#fff"/>
  <rect x="27" y="9" width="2" height="1" fill="#fff"/>
  <rect x="4" y="10" width="1" height="1" fill="#fff"/>
  <rect x="10" y="10" width="12" height="1" fill="#fff"/>
  <rect x="27" y="10" width="1" height="1" fill="#fff"/>
  <rect x="4" y="11" width="2" height="1" fill="#fff"/>
  <rect x="10" y="11" width="12" height="1" fill="#fff"/>
  <rect x="26" y="11" width="2" height="1" fill="#fff"/>
  <rect x="4" y="12" width="2" height="1" fill="#fff"/>
  <rect x="9" y="12" width="14" height="1" fill="#fff"/>
  <rect x="26" y="12" width="2" height="1" fill="#fff"/>
  <rect x="4" y="13" width="3" height="1" fill="#fff"/>
  <rect x="8" y="13" width="16" height="1" fill="#fff"/>
  <rect x="25" y="13" width="3" height="1" fill="#fff"/>
  <rect x="4" y="14" width="6" height="1" fill="#fff"/>
  <rect x="12" y="14" width="8" height="1" fill="#fff"/>
  <rect x="22" y="14" width="6" height="1" fill="#fff"/>
  <rect x="4" y="15" width="6" height="1" fill="#fff"/>
  <rect x="13" y="15" width="6" height="1" fill="#fff"/>
  <rect x="22" y="15" width="6" height="1" fill="#fff"/>
  <rect x="3" y="16" width="4" height="1" fill="#fff"/>
  <rect x="25" y="16" width="4" height="1" fill="#fff"/>
  <rect x="0" y="17" width="1" height="1" fill="#fff"/>
  <rect x="2" y="17" width="4" height="1" fill="#fff"/>
  <rect x="11" y="17" width="1" height="1" fill="#fff"/>
  <rect x="20" y="17" width="1" height="1" fill="#fff"/>
  <rect x="26" y="17" width="4" height="1" fill="#fff"/>
  <rect x="31" y="17" width="1" height="1" fill="#fff"/>
  <rect x="1" y="18" width="2" height="1" fill="#fff"/>
  <rect x="4" y="18" width="1" height="1" fill="#fff"/>
  <rect x="11" y="18" width="1" height="1" fill="#fff"/>
  <rect x="20" y="18" width="1" height="1" fill="#fff"/>
  <rect x="27" y="18" width="1" height="1" fill="#fff"/>
  <rect x="29" y="18" width="2" height="1" fill="#fff"/>
  <rect x="1" y="19" width="3" height="1" fill="#fff"/>
  <rect x="28" y="19" width="3" height="1" fill="#fff"/>
  <rect x="2" y="20" width="2" height="1" fill="#fff"/>
  <rect x="12" y="20" width="8" height="1" fill="#fff"/>
  <rect x="28" y="20" width="2" height="1" fill="#fff"/>
  <rect x="2" y="21" width="3" height="1" fill="#fff"/>
  <rect x="12" y="21" width="8" height="1" fill="#fff"/>
  <rect x="27" y="21" width="3" height="1" fill="#fff"/>
  <rect x="4" y="22" width="4" height="1" fill="#fff"/>
  <rect x="10" y="22" width="12" height="1" fill="#fff"/>
  <rect x="24" y="22" width="4" height="1" fill="#fff"/>
  <rect x="4" y="23" width="10" height="1" fill="#fff"/>
  <rect x="18" y="23" width="10" height="1" fill="#fff"/>
  <rect x="8" y="24" width="6" height="1" fill="#fff"/>
  <rect x="18" y="24" width="6" height="1" fill="#fff"/>
  <rect x="8" y="25" width="16" height="1" fill="#fff"/>
  <rect x="12" y="26" width="8" height="1" fill="#fff"/>
  <rect x="12" y="27" width="8" height="1" fill="#fff"/>
</svg>